Coordinates
version=1
nRows=11
nColumns=63
inDegrees=yes

Units are S.I. units (second, meters, Newtons, ...)
If the header above contains a line with 'inDegrees', this indicates whether rotational values are in degrees (yes) or radians (no).

endheader
time	pelvis_tilt	pelvis_list	pelvis_rotation	pelvis_tx	pelvis_ty	pelvis_tz	hip_flexion_r	hip_adduction_r	hip_rotation_r	knee_angle_r	knee_angle_r_beta	ankle_angle_r	subtalar_angle_r	mtp_angle_r	hip_flexion_l	hip_adduction_l	hip_rotation_l	knee_angle_l	knee_angle_l_beta	ankle_angle_l	subtalar_angle_l	mtp_angle_l	L5_S1_Flex_Ext	L5_S1_Lat_Bending	L5_S1_axial_rotation	L4_L5_Flex_Ext	L4_L5_Lat_Bending	L4_L5_axial_rotation	L3_L4_Flex_Ext	L3_L4_Lat_Bending	L3_L4_axial_rotation	L2_L3_Flex_Ext	L2_L3_Lat_Bending	L2_L3_axial_rotation	L1_L2_Flex_Ext	L1_L2_Lat_Bending	L1_L2_axial_rotation	L1_T12_Flex_Ext	L1_T12_Lat_Bending	L1_T12_axial_rotation	Abs_r3	Abs_r2	Abs_r1	Abs_t1	Abs_t2	neck_flexion	neck_bending	neck_rotation	arm_flex_r	arm_add_r	arm_rot_r	elbow_flex_r	pro_sup_r	wrist_flex_r	wrist_dev_r	arm_flex_l	arm_add_l	arm_rot_l	elbow_flex_l	pro_sup_l	wrist_flex_l	wrist_dev_l
1.338983	-5.294102	-14.748448	85.506148	0.256742	0.957457	0.299338	25.540299	-8.396850	-3.425138	35.704139	0.623155	46.437310	11.346116	0.000000	18.965681	2.943836	-22.527509	24.480917	0.427273	42.140923	10.428197	0.000000	0.646326	-1.317935	2.881280	1.200292	-1.752853	3.061360	1.061849	-3.204427	3.061360	0.738686	-3.204427	2.521120	0.600178	-2.687533	2.341040	0.369311	-2.041481	2.160960	4.616641	-14.908743	16.024814	0.000000	0.000000	28.419138	-6.811230	-21.405476	19.862891	-5.813946	8.724183	107.831316	88.493320	-40.128082	-19.115582	31.176323	-6.233060	31.088423	100.738332	88.186664	-0.882247	-12.810518
1.355932	-5.334117	-14.529221	85.572875	0.256236	0.957560	0.298907	25.493398	-8.418820	-3.079959	36.083055	0.629768	46.546106	10.861093	0.000000	18.752228	3.084120	-22.338835	24.446830	0.426678	42.163663	10.232339	0.000000	0.623942	-1.320507	2.885759	1.158722	-1.756274	3.066119	1.025074	-3.210680	3.066119	0.713103	-3.210680	2.525040	0.579392	-2.692778	2.344680	0.356520	-2.045465	2.164320	4.456753	-14.937837	16.049728	0.000000	0.000000	28.409270	-6.744078	-21.182673	19.748898	-5.941651	8.926064	107.856655	88.410458	-41.261092	-19.506102	31.171740	-6.199234	31.208880	100.774050	88.599375	-0.677607	-13.400934
1.372881	-5.236976	-14.265894	85.707214	0.255447	0.958226	0.298291	25.262573	-8.341330	-2.900263	36.230545	0.632342	46.494800	10.474311	0.000000	18.418810	3.173759	-21.872248	24.278712	0.423743	42.033389	9.763883	0.000000	0.602726	-1.299489	2.883158	1.119323	-1.728321	3.063355	0.990219	-3.159578	3.063355	0.688856	-3.159578	2.522763	0.559692	-2.649918	2.342566	0.344398	-2.012909	2.162368	4.305213	-14.700081	16.035258	0.000000	0.000000	28.399671	-6.650650	-20.655166	19.605614	-6.082020	8.866185	108.030404	88.359017	-41.216765	-19.383332	31.206635	-6.164273	31.387901	100.688948	88.875859	-0.534755	-14.275900
1.389831	-4.995222	-13.943107	85.895504	0.254407	0.959438	0.297536	24.829204	-8.152912	-2.873813	36.135879	0.630690	46.279821	10.185210	0.000000	17.946572	3.182859	-21.240677	23.982038	0.418566	41.788288	9.173819	0.000000	0.579781	-1.253973	2.874415	1.076711	-1.667784	3.054066	0.952522	-3.048909	3.054066	0.662632	-3.048909	2.515113	0.538385	-2.557101	2.335462	0.331287	-1.942404	2.155811	4.141317	-14.185190	15.986632	0.000000	0.000000	28.389389	-6.526585	-19.826765	19.469008	-6.252521	8.596185	108.282118	88.465041	-40.245603	-18.979747	31.288400	-6.102519	31.608669	100.403101	89.017413	-0.421734	-15.525760
1.406780	-4.658813	-13.567989	86.114042	0.253216	0.961123	0.296709	24.228553	-7.895716	-2.970886	35.842196	0.625564	45.917688	9.976257	0.000000	17.349051	3.147507	-20.464522	23.559818	0.411196	41.413169	8.455404	0.000000	0.555395	-1.192798	2.865178	1.031424	-1.586422	3.044252	0.912458	-2.900170	3.044252	0.634761	-2.900170	2.507031	0.515740	-2.432354	2.327957	0.317353	-1.847645	2.148883	3.967131	-13.493173	15.935260	0.000000	0.000000	28.378138	-6.325163	-18.819714	19.340000	-6.412330	8.071747	108.607244	88.536458	-38.363754	-18.122829	31.444312	-6.001926	31.877367	99.922727	89.096101	-0.445810	-16.893917
1.423729	-4.226726	-13.136525	86.404858	0.251842	0.963205	0.295871	23.459502	-7.586111	-3.242811	35.374731	0.617406	45.422136	9.859043	0.000000	16.652762	3.071188	-19.468609	23.058142	0.402441	40.912990	7.545929	0.000000	0.528154	-1.117091	2.850040	0.980834	-1.485731	3.028168	0.867704	-2.716094	3.028168	0.603627	-2.716094	2.493785	0.490444	-2.277971	2.315658	0.301787	-1.730373	2.137530	3.772550	-12.636753	15.851068	0.000000	0.000000	28.365694	-6.053195	-17.656315	19.210978	-6.530171	7.203656	109.013031	88.452190	-35.290122	-16.606173	31.678367	-5.812710	32.208894	99.257852	88.910154	-0.769502	-18.228605
1.440678	-3.762261	-12.678227	86.706920	0.250532	0.965565	0.295083	22.590161	-7.238126	-3.555161	34.766313	0.606787	44.809725	9.736890	0.000000	15.889033	2.938491	-18.573412	22.503858	0.392766	40.337006	6.785996	0.000000	0.502344	-1.039733	2.841166	0.932903	-1.382845	3.018739	0.825301	-2.528007	3.018739	0.574129	-2.528007	2.486020	0.466477	-2.120224	2.308447	0.287039	-1.610547	2.130874	3.588192	-11.761669	15.801712	0.000000	0.000000	28.352066	-5.693661	-16.586501	19.103507	-6.629382	6.234823	109.455579	88.180651	-32.145392	-14.830052	32.041473	-5.575716	32.654118	98.490168	88.389173	-1.439076	-19.226083
1.457627	-3.287710	-12.194871	87.046453	0.249275	0.968117	0.294365	21.632613	-6.887186	-3.949077	34.044340	0.594186	44.125787	9.646836	0.000000	15.080009	2.785299	-17.687486	21.915881	0.382504	39.679035	6.074082	0.000000	0.477501	-0.964823	2.825284	0.886766	-1.283214	3.001865	0.784486	-2.345870	3.001865	0.545735	-2.345870	2.472124	0.443407	-1.967466	2.295544	0.272844	-1.494510	2.118963	3.410739	-10.914267	15.713384	0.000000	0.000000	28.338615	-5.182657	-15.580235	19.037333	-6.692412	5.189743	109.907074	87.730669	-28.781081	-12.758860	32.518077	-5.326518	33.171091	97.685574	87.419325	-2.295732	-19.810250
1.474576	-2.826397	-11.701374	87.406702	0.248116	0.970771	0.293718	20.619909	-6.548116	-4.403327	33.231674	0.580002	43.413565	9.603465	0.000000	14.244397	2.629904	-16.800161	21.299410	0.371745	38.944412	5.361922	0.000000	0.454953	-0.896743	2.798909	0.844893	-1.192668	2.973840	0.747442	-2.180341	2.973840	0.519966	-2.180341	2.449045	0.422469	-1.828638	2.274113	0.259960	-1.389055	2.099181	3.249684	-10.144137	15.566690	0.000000	0.000000	28.327052	-4.509550	-14.683312	19.040215	-6.735000	4.153974	110.322766	87.107369	-25.414126	-10.501286	33.091479	-5.107564	33.699183	96.908406	85.995438	-2.920435	-19.884109
1.491525	-2.395036	-11.208995	87.781319	0.247073	0.973456	0.293134	19.574618	-6.235286	-4.915600	32.344939	0.564526	42.715780	9.646319	0.000000	13.401167	2.493403	-15.862442	20.665706	0.360685	38.125228	4.549646	0.000000	0.434631	-0.838208	2.755814	0.807153	-1.114817	2.928052	0.714055	-2.038019	2.928052	0.496739	-2.038019	2.411337	0.403598	-1.709274	2.239099	0.248348	-1.298384	2.066860	3.104523	-9.481976	15.327010	0.000000	0.000000	28.318562	-3.670865	-13.882673	19.147710	-6.776274	3.192689	110.632370	86.205511	-22.124684	-8.179807	33.718775	-4.963480	34.136944	96.250008	84.316883	-2.917434	-19.430080
1.508475	-1.985735	-10.722333	88.180967	0.246094	0.976127	0.292594	18.500636	-5.947625	-5.517513	31.389663	0.547853	42.052794	9.797354	0.000000	12.557090	2.366900	-14.885307	20.025988	0.349519	37.257217	3.667779	0.000000	0.416202	-0.787405	2.694389	0.772929	-1.047248	2.862788	0.683778	-1.914495	2.862788	0.475677	-1.914495	2.357590	0.386485	-1.605675	2.189191	0.237818	-1.219690	2.020792	2.972889	-8.907278	14.985384	0.000000	0.000000	28.309600	-2.688585	-13.133202	19.351988	-6.866391	2.302224	110.793339	85.028395	-18.874811	-5.816556	34.329997	-4.920867	34.430411	95.814555	82.530478	-2.253198	-18.439990
